# xmcd
#
# Track frame offsets:
# 150
# 31705
# 56142
# 82112
# 105515
# 131870
# 161065
# 199930
# 226090
# 249370
# 271040
# 296925
#
# Disc length: 4348 seconds
#
#
# Revision: 0
# Processed by: cddbd v1.5.1PL0 Copyright (c) Steve Scherf et al.
# Submitted via: CDLP Version 5
#
DISCID=a710fa0c
DTITLE=アーティスト情報なし - アルバム情報なし (2004/06/21 13:37:03)
DYEAR=1900
DGENRE=Misc
TTITLE0=トラック 1
TTITLE1=トラック 2
TTITLE2=トラック 3
TTITLE3=トラック 4
TTITLE4=トラック 5
TTITLE5=トラック 6
TTITLE6=トラック 7
TTITLE7=トラック 8
TTITLE8=トラック 9
TTITLE9=トラック 10
TTITLE10=トラック 11
TTITLE11=トラック 12
EXTD=
EXTT0=
EXTT1=
EXTT2=
EXTT3=
EXTT4=
EXTT5=
EXTT6=
EXTT7=
EXTT8=
EXTT9=
EXTT10=
EXTT11=
PLAYORDER=
